{
  "accessors": [
    {
      "bufferView": 2,
      "componentType": 5126,
      "count": 18595,
      "max": [
        0.27646636962890625,
        0.7998782992362976,
        0.4104800224304199
      ],
      "min": [
        -0.27646636962890625,
        0.0026481151580810547,
        -0.798600435256958
      ],
      "type": "VEC3"
    },
    {
      "bufferView": 2,
      "byteOffset": 223140,
      "componentType": 5126,
      "count": 18595,
      "max": [
        0.9999868869781494,
        0.9999056458473206,
        0.9978804588317871
      ],
      "min": [
        -0.9999868869781494,
        -0.9999901652336121,
        -0.9991099238395691
      ],
      "type": "VEC3"
    },
    {
      "bufferView": 3,
      "componentType": 5126,
      "count": 18595,
      "max": [
        0.9999668002128601,
        0.9998133182525635,
        0.9998708367347717,
        1.0
      ],
      "min": [
        -0.9999136328697205,
        -0.999668300151825,
        -0.9999758005142212,
        -1.0
      ],
      "type": "VEC4"
    },
    {
      "bufferView": 1,
      "componentType": 5126,
      "count": 18595,
      "max": [
        0.9907026886940002,
        0.9913681149482727
      ],
      "min": [
        0.007692158222198486,
        0.007030308246612549
      ],
      "type": "VEC2"
    },
    {
      "bufferView": 1,
      "byteOffset": 148760,
      "componentType": 5126,
      "count": 18595,
      "max": [
        0.9907026886940002,
        0.9913681149482727
      ],
      "min": [
        0.007692158222198486,
        0.007030308246612549
      ],
      "type": "VEC2"
    },
    {
      "bufferView": 1,
      "byteOffset": 297520,
      "componentType": 5126,
      "count": 18595,
      "max": [
        0.9907026886940002,
        0.9913681149482727
      ],
      "min": [
        0.007692158222198486,
        0.007030308246612549
      ],
      "type": "VEC2"
    },
    {
      "bufferView": 1,
      "byteOffset": 446280,
      "componentType": 5126,
      "count": 18595,
      "max": [
        0.9907026886940002,
        0.9913681149482727
      ],
      "min": [
        0.007692158222198486,
        0.007030308246612549
      ],
      "type": "VEC2"
    },
    {
      "bufferView": 1,
      "byteOffset": 595040,
      "componentType": 5126,
      "count": 18595,
      "max": [
        0.9907026886940002,
        0.9913681149482727
      ],
      "min": [
        0.007692158222198486,
        0.007030308246612549
      ],
      "type": "VEC2"
    },
    {
      "bufferView": 0,
      "componentType": 5125,
      "count": 98100,
      "type": "SCALAR"
    }
  ],
  "asset": {
    "extras": {
      "author": "Al-Deezel (https://sketchfab.com/Al-dezel)",
      "license": "CC-BY-4.0 (http://creativecommons.org/licenses/by/4.0/)",
      "source": "https://sketchfab.com/3d-models/high-detailed-bird-743668b1e34047e2bc6f17231b7cd9f0",
      "title": "High detailed bird"
    },
    "generator": "Sketchfab-15.19.0",
    "version": "2.0"
  },
  "bufferViews": [
    {
      "buffer": 0,
      "byteLength": 392400,
      "name": "floatBufferViews",
      "target": 34963
    },
    {
      "buffer": 0,
      "byteLength": 743800,
      "byteOffset": 392400,
      "byteStride": 8,
      "name": "floatBufferViews",
      "target": 34962
    },
    {
      "buffer": 0,
      "byteLength": 446280,
      "byteOffset": 1136200,
      "byteStride": 12,
      "name": "floatBufferViews",
      "target": 34962
    },
    {
      "buffer": 0,
      "byteLength": 297520,
      "byteOffset": 1582480,
      "byteStride": 16,
      "name": "floatBufferViews",
      "target": 34962
    }
  ],
  "buffers": [
    {
      "byteLength": 1880000,
      "uri": "scene.bin"
    }
  ],
  "extensionsRequired": [
    "KHR_materials_pbrSpecularGlossiness"
  ],
  "extensionsUsed": [
    "KHR_materials_pbrSpecularGlossiness"
  ],
  "images": [
    {
      "uri": "textures/material_0_diffuse.png"
    },
    {
      "uri": "textures/material_0_specularGlossiness.png"
    },
    {
      "uri": "textures/material_0_normal.png"
    },
    {
      "uri": "textures/material_0_occlusion.png"
    }
  ],
  "materials": [
    {
      "doubleSided": true,
      "extensions": {
        "KHR_materials_pbrSpecularGlossiness": {
          "diffuseFactor": [
            1.0,
            1.0,
            1.0,
            1.0
          ],
          "diffuseTexture": {
            "index": 0
          },
          "glossinessFactor": 1.0,
          "specularFactor": [
            1.0,
            1.0,
            1.0
          ],
          "specularGlossinessTexture": {
            "index": 1
          }
        }
      },
      "name": "material_0",
      "normalTexture": {
        "index": 2
      },
      "occlusionTexture": {
        "index": 3
      }
    }
  ],
  "meshes": [
    {
      "name": "Object_0",
      "primitives": [
        {
          "attributes": {
            "NORMAL": 1,
            "POSITION": 0,
            "TANGENT": 2,
            "TEXCOORD_0": 3,
            "TEXCOORD_1": 4,
            "TEXCOORD_2": 5,
            "TEXCOORD_3": 6,
            "TEXCOORD_4": 7
          },
          "indices": 8,
          "material": 0,
          "mode": 4
        }
      ]
    }
  ],
  "nodes": [
    {
      "children": [
        1
      ],
      "matrix": [
        1.0,
        0.0,
        0.0,
        0.0,
        0.0,
        2.220446049250313e-16,
        -1.0,
        0.0,
        0.0,
        1.0,
        2.220446049250313e-16,
        0.0,
        0.0,
        0.0,
        0.0,
        1.0
      ],
      "name": "Sketchfab_model"
    },
    {
      "children": [
        2
      ],
      "name": "root"
    },
    {
      "children": [
        3
      ],
      "matrix": [
        1.0,
        0.0,
        0.0,
        0.0,
        0.0,
        2.220446049250313e-16,
        1.0,
        0.0,
        0.0,
        -1.0,
        2.220446049250313e-16,
        0.0,
        0.0,
        0.0,
        0.0,
        1.0
      ],
      "name": "GLTF_SceneRootNode"
    },
    {
      "children": [
        4
      ],
      "matrix": [
        0.009999999776482582,
        0.0,
        0.0,
        0.0,
        0.0,
        0.009999999776482582,
        0.0,
        0.0,
        0.0,
        0.0,
        0.009999999776482582,
        0.0,
        0.0,
        0.0,
        0.0,
        1.0
      ],
      "name": "RootNode.0_0"
    },
    {
      "children": [
        5
      ],
      "name": "robin.1_1"
    },
    {
      "mesh": 0,
      "name": "Object_5"
    }
  ],
  "samplers": [
    {
      "magFilter": 9729,
      "minFilter": 9987,
      "wrapS": 10497,
      "wrapT": 10497
    }
  ],
  "scene": 0,
  "scenes": [
    {
      "name": "Sketchfab_Scene",
      "nodes": [
        0
      ]
    }
  ],
  "textures": [
    {
      "sampler": 0,
      "source": 0
    },
    {
      "sampler": 0,
      "source": 1
    },
    {
      "sampler": 0,
      "source": 2
    },
    {
      "sampler": 0,
      "source": 3
    }
  ]
}
